<svg height="16" viewBox="0 0 4.2333333 4.2333332" width="16" xmlns="http://www.w3.org/2000/svg"><g fill="#e0e0e0" stroke-width=".033452"><path d="m.26458332.26458332h.79375028v.79375028h-.79375028z"/><path d="m.26458332 2.1166662h.79375018v.7937503h-.79375018z"/><path d="m2.1166664.52916623h.7937502v.79375037h-.7937502z"/></g><path d="m2.5135415 1.7197916v-.79374997l-1.85794234-.2588301.005859 1.84633007h.66145844" fill="none" stroke="#e0e0e0" stroke-width=".396874"/><path d="m1.6893025 1.4629598c-.0676325 0-.1352451.0256911-.1870686.0775146l-.0940511.0940511c-.1036471.1036471-.1036472.2704902 0 .3741374l.2811197.280603.4676717-.4676717-.280603-.2811198c-.0518235-.0518235-.1194361-.0775146-.1870687-.0775146zm.6547404.5457031-.4676717.4676717 1.4924154 1.4924153h.5999633v-.33538z" fill="#e0e0e0" stroke-width=".556793"/></svg>